<?xml version="1.0" encoding="UTF-8"?>
<svg version="1.1" xmlns="http://www.w3.org/2000/svg" width="433" height="265">
<path d="M0 0 C16.54377248 -0.48474001 33.04937689 2.50921813 45.45703125 14.15625 C50.81273038 19.88614645 54.16050004 26.31290683 54.64453125 34.21875 C54.58265625 34.858125 54.52078125 35.4975 54.45703125 36.15625 C56.10703125 36.81625 57.75703125 37.47625 59.45703125 38.15625 C59.45703125 39.14625 59.45703125 40.13625 59.45703125 41.15625 C57.80703125 40.82625 56.15703125 40.49625 54.45703125 40.15625 C54.24949219 40.88328125 54.04195312 41.6103125 53.828125 42.359375 C47.44606884 63.18784279 33.78893709 77.4503779 15.203125 88.00390625 C1.62798156 94.78314966 -12.97177587 97.18790807 -27.671875 93.19921875 C-33.27312169 91.16448016 -36.94249385 87.79673678 -41.04296875 83.59375 C-43.73745731 77.41888039 -43.69319596 70.78506416 -41.66015625 64.37109375 C-34.72808186 49.51992776 -21.49557692 41.57023477 -6.71337891 35.91552734 C5.66742761 31.58433406 18.39355966 29.94554885 31.45703125 30.15625 C31.13984931 25.7157029 29.98362285 23.03608707 27.19921875 19.55078125 C21.88305074 15.29546291 16.39811747 14.62907445 9.83203125 14.71875 C9.04223877 14.72704834 8.25244629 14.73534668 7.4387207 14.74389648 C-9.01466515 15.21275374 -23.47156317 23.37893145 -35.54296875 34.15625 C-36.30222656 34.83300781 -37.06148437 35.50976562 -37.84375 36.20703125 C-55.76721206 53.13990473 -66.01477124 77.56949881 -68.98046875 101.71875 C-67.63567057 112.28502144 -59.99986923 120.61172938 -52.08984375 127.19921875 C-35.96479081 139.0901776 -18.69988694 138.86179439 0.45703125 137.15625 C3.52654766 128.03905543 5.94261483 117.65533321 1.70703125 108.53125 C0.03869594 105.69507997 -1.75398074 103.94917086 -4.54296875 102.15625 C-4.54296875 101.49625 -4.54296875 100.83625 -4.54296875 100.15625 C-1.75578986 100.23822585 -0.02544108 100.71860395 2.0546875 102.60546875 C6.93029956 108.12796792 8.74481739 112.49692764 8.76953125 119.96875 C8.78628906 121.13019531 8.80304688 122.29164063 8.8203125 123.48828125 C8.38681676 127.86518982 7.14521157 131.10728982 5.45703125 135.15625 C14.64187732 131.44850232 23.07607202 127.95928178 30.45703125 121.15625 C31.32328125 120.3725 32.18953125 119.58875 33.08203125 118.78125 C37.07059001 114.37284295 40.65711178 109.6526418 44.1328125 104.83203125 C44.65230469 104.11402344 45.17179688 103.39601563 45.70703125 102.65625 C46.1659375 102.0065625 46.62484375 101.356875 47.09765625 100.6875 C48.45703125 99.15625 48.45703125 99.15625 51.45703125 98.15625 C51.22367818 108.65713797 43.4828211 116.77951814 36.34985352 123.80200195 C27.57888853 132.03764352 17.51552745 137.50804386 6.41796875 141.96484375 C1.90998559 143.77874199 -0.67658881 145.02797852 -3.66796875 148.90625 C-10.00125749 156.39723668 -18.54459069 160.54675691 -28.16796875 161.90625 C-39.71998857 162.84290026 -50.0777785 159.56865183 -59.23046875 152.53125 C-66.50966868 145.78425572 -69.93430973 137.59455772 -72.51953125 128.21484375 C-73.78742545 124.42567902 -75.70041066 121.67200752 -78.0234375 118.4609375 C-87.42136319 104.20701422 -88.54657455 86.21629848 -85.35546875 69.84375 C-81.72176901 55.00331273 -74.60983252 41.60009698 -64.54296875 30.15625 C-63.87652344 29.39441406 -63.21007812 28.63257812 -62.5234375 27.84765625 C-46.89264129 11.11487441 -22.66990103 0.99977513 0 0 Z M-52.54296875 31.15625 C-66.07496741 47.02649843 -73.48278552 65.6631241 -73.7734375 86.484375 C-73.73925848 89.38305383 -73.73925848 89.38305383 -71.54296875 92.15625 C-71.29804687 91.02832031 -71.053125 89.90039062 -70.80078125 88.73828125 C-66.6528074 70.84004343 -59.56565797 54.20103686 -47.54296875 40.15625 C-46.91003906 39.36347656 -46.27710937 38.57070312 -45.625 37.75390625 C-34.1925111 23.96420314 -16.42581463 13.41373797 1.45703125 11.15625 C11.93696681 10.29924592 22.10430786 11.19564718 30.45703125 18.15625 C33.79358324 22.32693999 35.23369954 26.05903454 36.45703125 31.15625 C40.08703125 31.81625 43.71703125 32.47625 47.45703125 33.15625 C46.71012028 25.31368482 42.54817805 20.72751558 36.73828125 15.828125 C8.49659291 -4.8695507 -30.19551976 8.29422159 -52.54296875 31.15625 Z M-29.0703125 58.34765625 C-33.21998117 63.44393369 -35.26857201 68.35708702 -34.92578125 74.984375 C-34.03989075 80.01044766 -31.68770598 83.21502161 -27.73046875 86.46875 C-16.75932462 92.27700278 -5.69734474 90.78331789 5.84765625 87.4140625 C15.32811696 84.11026559 22.94566739 78.72546684 30.45703125 72.15625 C31.08351563 71.61355469 31.71 71.07085937 32.35546875 70.51171875 C40.16660394 63.24842336 47.75422044 52.98224618 48.625 42.046875 C48.64131088 40.41578702 48.560937 38.78410676 48.45703125 37.15625 C45.46222208 36.2839088 42.82127214 36.04795234 39.70703125 36.09375 C38.50820312 36.10728516 38.50820312 36.10728516 37.28515625 36.12109375 C36.38023437 36.13849609 36.38023437 36.13849609 35.45703125 36.15625 C35.05613281 37.05085938 34.65523438 37.94546875 34.2421875 38.8671875 C27.91693292 52.51572336 19.50654011 62.68066769 5.20703125 68.47265625 C-3.79581782 71.40881271 -12.20264364 71.59294052 -21.54296875 71.15625 C-21.87296875 70.49625 -22.20296875 69.83625 -22.54296875 69.15625 C-21.93453125 69.20265625 -21.32609375 69.2490625 -20.69921875 69.296875 C-6.28943728 69.89021894 8.79159032 65.28035509 20.26953125 56.46875 C26.11407168 51.02629098 30.5435017 44.12035376 31.45703125 36.15625 C10.2950934 34.68836992 -14.42879901 42.80619157 -29.0703125 58.34765625 Z M-67.54296875 132.15625 C-62.86377987 144.04689468 -56.58125154 151.6842441 -44.79296875 157.03125 C-36.28440254 159.85616164 -27.22261646 158.78278933 -19.0625 155.4375 C-14.76105401 153.25009801 -9.76434375 150.599 -7.54296875 146.15625 C-8.28232666 146.17719727 -9.02168457 146.19814453 -9.78344727 146.21972656 C-29.44473207 146.7030378 -45.64139074 146.06131006 -62.54296875 135.15625 C-63.54861514 134.16192846 -64.55065481 133.16387743 -65.54296875 132.15625 C-66.20296875 132.15625 -66.86296875 132.15625 -67.54296875 132.15625 Z " fill="#D7E9D1" transform="translate(100.54296875,48.84375)"/>
<path d="M0 0 C2.19921875 1.59765625 2.19921875 1.59765625 3.19921875 3.59765625 C3.62136787 8.9167352 3.62136787 8.9167352 3.19921875 11.59765625 C1.19921875 13.59765625 1.19921875 13.59765625 -0.80078125 14.59765625 C-1.13078125 11.62765625 -1.46078125 8.65765625 -1.80078125 5.59765625 C-11.93237507 6.21169224 -17.09195854 10.26778195 -23.80078125 17.59765625 C-25.7287582 20.08856053 -27.43648782 22.68263374 -29.11328125 25.34765625 C-29.57694092 26.07645996 -30.04060059 26.80526367 -30.51831055 27.55615234 C-38.70060309 40.63282487 -45.37327501 54.17191598 -50.80078125 68.59765625 C-41.23078125 68.59765625 -31.66078125 68.59765625 -21.80078125 68.59765625 C-20.02703125 64.20453125 -18.25328125 59.81140625 -16.42578125 55.28515625 C1.73186219 11.12906879 1.73186219 11.12906879 21.19921875 -0.40234375 C26.09617604 -2.03466285 31.08913608 -1.9195586 36.19921875 -1.40234375 C39.27287661 0.40569029 40.62941607 1.45805089 42.19921875 4.59765625 C42.51171875 7.47265625 42.51171875 7.47265625 42.19921875 10.59765625 C40.19921875 12.97265625 40.19921875 12.97265625 38.19921875 14.59765625 C37.86921875 12.28765625 37.53921875 9.97765625 37.19921875 7.59765625 C34.79821775 6.17206191 33.05209842 5.42398519 30.26171875 5.9921875 C11.68126706 12.57276414 1.70866851 38.19404874 -6.17138672 54.65356445 C-8.35789991 59.29623166 -10.16783672 63.69882266 -11.80078125 68.59765625 C-3.88078125 68.92765625 4.03921875 69.25765625 12.19921875 69.59765625 C9.62973249 73.45188564 8.21507009 73.36326862 3.76171875 74.28515625 C-2.50676296 75.52720835 -8.42945974 75.94872907 -14.80078125 75.59765625 C-15.85310629 79.25084969 -16.83176156 82.92153393 -17.80078125 86.59765625 C-17.98833984 87.30083984 -18.17589844 88.00402344 -18.36914062 88.72851562 C-25.74866471 116.7420488 -33.21770282 150.34689155 -23.80078125 178.59765625 C-22.97578125 178.92765625 -22.15078125 179.25765625 -21.30078125 179.59765625 C-20.47578125 179.92765625 -19.65078125 180.25765625 -18.80078125 180.59765625 C-18.47078125 181.58765625 -18.14078125 182.57765625 -17.80078125 183.59765625 C-23.39666439 183.88709848 -26.9874738 183.80652788 -31.80078125 180.59765625 C-39.88597288 172.14495591 -39.29833297 164.23864242 -39.11328125 153.16015625 C-38.21983804 128.17352789 -32.77431684 100.94473115 -23.80078125 77.59765625 C-25.22390625 77.41203125 -25.22390625 77.41203125 -26.67578125 77.22265625 C-29.80078125 76.59765625 -29.80078125 76.59765625 -31.80078125 74.59765625 C-33.84484312 74.57885091 -33.84484312 74.57885091 -36.17578125 74.97265625 C-42.06600869 75.70462896 -47.87342519 75.6893164 -53.80078125 75.59765625 C-53.93959717 76.32694336 -54.07841309 77.05623047 -54.22143555 77.80761719 C-54.74428291 80.32556902 -55.3691073 82.76524647 -56.0703125 85.23828125 C-68.80556442 129.76909421 -68.80556442 129.76909421 -63.91796875 174.5859375 C-62.01562554 177.60422221 -59.66834872 179.54939377 -56.80078125 181.59765625 C-56.80078125 182.25765625 -56.80078125 182.91765625 -56.80078125 183.59765625 C-62.90968152 184.02635101 -67.00451221 183.60038199 -71.80078125 179.59765625 C-79.09843166 171.47029882 -78.34224163 162.21947615 -78.00634766 151.82226562 C-77.33883869 141.35141241 -75.48713951 130.9445406 -73.80078125 120.59765625 C-74.53683594 121.15195313 -75.27289063 121.70625 -76.03125 122.27734375 C-77.00707031 123.00179687 -77.98289062 123.72625 -78.98828125 124.47265625 C-79.95121094 125.19195312 -80.91414063 125.91125 -81.90625 126.65234375 C-87.81785561 130.62532566 -92.81649679 131.28916956 -99.80078125 130.59765625 C-102.95603491 129.56876919 -104.19046998 128.59342727 -105.9140625 125.78125 C-108.77282247 119.97017064 -109.8954946 113.9703978 -110.80078125 107.59765625 C-111.44144531 108.52707031 -112.08210938 109.45648438 -112.7421875 110.4140625 C-125.5513867 128.81625573 -125.5513867 128.81625573 -134.65234375 131.36328125 C-138.10267144 131.73968063 -140.06533054 130.59920555 -142.80078125 128.59765625 C-146.31620027 123.32452772 -145.28938951 116.72968989 -144.80078125 110.59765625 C-143.91469861 106.6706991 -142.54144252 103.21996693 -140.80078125 99.59765625 C-140.37667969 98.6953125 -139.95257813 97.79296875 -139.515625 96.86328125 C-135.86058854 89.65501993 -131.13457606 83.63822599 -125.80078125 77.59765625 C-125.23617187 76.92605469 -124.6715625 76.25445312 -124.08984375 75.5625 C-118.61574985 69.48759092 -111.4970005 65.24577701 -103.34765625 64.12109375 C-97.58497543 63.97636889 -92.59423223 64.06563974 -87.80078125 67.59765625 C-85.33767217 69.97866169 -84.85344273 71.17636442 -84.42578125 74.59765625 C-84.83433568 77.86609168 -85.59668718 79.20988767 -87.80078125 81.59765625 C-88.79078125 81.26765625 -89.78078125 80.93765625 -90.80078125 80.59765625 C-90.52234375 79.45296875 -90.52234375 79.45296875 -90.23828125 78.28515625 C-89.57258952 75.5079825 -89.57258952 75.5079825 -90.80078125 72.59765625 C-95.05981114 71.45498969 -97.89078246 71.50838761 -101.890625 73.46875 C-117.66341599 82.79050173 -128.38674853 98.73915132 -134.80078125 115.59765625 C-135.43084174 118.35831602 -135.68945875 120.75893253 -135.80078125 123.59765625 C-130.9655211 123.17101565 -128.13374329 120.91676677 -124.80078125 117.59765625 C-122.16222728 114.42643477 -119.72925883 111.11879365 -117.30078125 107.78515625 C-116.66269531 106.92083984 -116.02460938 106.05652344 -115.3671875 105.16601562 C-111.70784248 100.22149688 -111.70784248 100.22149688 -108.13671875 95.21337891 C-107.62367188 94.49069824 -107.110625 93.76801758 -106.58203125 93.0234375 C-106.13923828 92.38446533 -105.69644531 91.74549316 -105.24023438 91.0871582 C-103.50764049 89.29432318 -102.23004898 88.97796006 -99.80078125 88.59765625 C-98.19283015 92.15620374 -97.54598149 94.974721 -97.4921875 98.87109375 C-97.46705078 99.86109375 -97.44191406 100.85109375 -97.41601562 101.87109375 C-97.38099324 103.9309289 -97.3497142 105.99083125 -97.32226562 108.05078125 C-97.16421455 113.98733379 -96.58629109 118.32375761 -93.80078125 123.59765625 C-88.01129498 124.11457467 -84.74937065 123.49407482 -79.85546875 120.375 C-72.64541923 114.13817009 -70.50957607 108.54473166 -68.61328125 99.22265625 C-68.14437927 97.04736443 -67.67178217 94.87286551 -67.1953125 92.69921875 C-66.85814209 91.15089355 -66.85814209 91.15089355 -66.51416016 89.57128906 C-65.53102369 85.47320482 -64.21660891 81.56531489 -62.80078125 77.59765625 C-64.22390625 77.41203125 -64.22390625 77.41203125 -65.67578125 77.22265625 C-68.80078125 76.59765625 -68.80078125 76.59765625 -70.80078125 74.59765625 C-70.80078125 73.27765625 -70.80078125 71.95765625 -70.80078125 70.59765625 C-67.17078125 70.26765625 -63.54078125 69.93765625 -59.80078125 69.59765625 C-59.47078125 67.94765625 -59.14078125 66.29765625 -58.80078125 64.59765625 C-58.17506442 62.85662661 -57.50376176 61.13155826 -56.796875 59.421875 C-56.39001465 58.43670898 -55.9831543 57.45154297 -55.56396484 56.43652344 C-55.12648926 55.39657227 -54.68901367 54.35662109 -54.23828125 53.28515625 C-53.56273193 51.67688965 -53.56273193 51.67688965 -52.87353516 50.03613281 C-34.46005977 6.64828307 -34.46005977 6.64828307 -17.0078125 -0.8515625 C-11.36216363 -2.26047664 -5.2647172 -2.63602995 0 0 Z " fill="#D7E9D1" transform="translate(300.80078125,56.40234375)"/>
<path d="M0 0 C3.01547808 1.58643106 4.79240655 3.32457609 6.5625 6.25 C7.87412669 13.1980765 6.07690155 18.31944739 2.5625 24.25 C4.2125 24.58 5.8625 24.91 7.5625 25.25 C7.5625 25.91 7.5625 26.57 7.5625 27.25 C6.89863281 27.40855469 6.23476563 27.56710938 5.55078125 27.73046875 C-0.21415252 29.25375782 -3.37640853 30.71113306 -7.4375 35.25 C-9.75 36.0625 -9.75 36.0625 -11.4375 36.25 C-10.7775 34.6 -10.1175 32.95 -9.4375 31.25 C-19.3375 31.745 -19.3375 31.745 -29.4375 32.25 C-31.61673165 45.25825247 -31.61673165 45.25825247 -27.4375 57.25 C-23.64891806 59.77572129 -20.81533276 59.82793172 -16.4375 59.25 C-8.74774398 57.23000439 -1.95990085 53.74204058 4.5625 49.25 C5.38234375 48.70988281 6.2021875 48.16976562 7.046875 47.61328125 C13.50274963 42.75027765 14.99865513 37.61503443 16.68359375 29.9375 C19.51468041 18.05951865 27.63875145 7.27445731 37.5625 0.25 C42.82882229 -2.29353978 47.81247032 -2.53811596 53.5625 -1.75 C57.69227726 -0.11431081 60.59901223 2.22811903 63.625 5.4375 C65.29768163 10.45554488 64.7179079 15.62237882 62.59375 20.453125 C61.65820457 22.09701196 60.61954729 23.68147821 59.5625 25.25 C61.5425 25.25 63.5225 25.25 65.5625 25.25 C63.40463438 27.67675853 61.71362596 28.73304937 58.625 29.6875 C55.04086144 30.92589523 53.16595612 32.46058273 50.5625 35.25 C48.3125 36 48.3125 36 46.5625 36.25 C46.5625 33.25 46.5625 33.25 48.5625 30.25 C45.60361327 30.55784377 42.64546833 30.87105574 39.6875 31.1875 C38.42486328 31.31801758 38.42486328 31.31801758 37.13671875 31.45117188 C35.92822266 31.58168945 35.92822266 31.58168945 34.6953125 31.71484375 C33.95168457 31.793396 33.20805664 31.87194824 32.44189453 31.95288086 C30.47803684 32.16637347 30.47803684 32.16637347 28.5625 33.25 C26.33579295 39.69573093 25.90794954 46.63179816 27.5625 53.25 C29.38617488 56.13258287 30.53185582 57.73467791 33.5625 59.25 C44.74479397 60.51592007 54.56216092 54.86743624 63.18359375 48.25390625 C65.26421384 46.50126568 67.17811382 44.70846525 69.0625 42.75 C69.8875 41.925 70.7125 41.1 71.5625 40.25 C72.5525 40.25 73.5425 40.25 74.5625 40.25 C73.96431775 45.43424613 70.33539079 48.79273749 66.5 51.9453125 C55.51216867 60.00546508 43.2281494 66.89161072 29.21875 66.12109375 C23.98575724 65.16506623 19.69759849 62.48818869 16.5625 58.25 C15.16435083 54.64555161 14.27172472 51.0460409 13.5625 47.25 C12.84900391 47.97703125 12.84900391 47.97703125 12.12109375 48.71875 C7.41679756 53.22378503 2.60094513 56.59598137 -3.125 59.625 C-3.75414307 59.95822266 -4.38328613 60.29144531 -5.03149414 60.63476562 C-13.83371736 65.14765701 -22.61655373 67.64297683 -32.36328125 65.0234375 C-36.67890008 63.4142237 -39.491923 61.26651459 -41.46875 57.05078125 C-45.32915767 45.66615308 -43.78703865 34.2031794 -38.703125 23.43359375 C-33.58072992 13.17989286 -27.94097677 4.57023932 -17.4375 -0.75 C-11.61128245 -2.69207252 -5.59355141 -2.64139928 0 0 Z M-13.4375 10.25 C-18.81897023 14.90587873 -21.81828871 18.91638025 -25.4375 25.25 C-18.5075 25.25 -11.5775 25.25 -4.4375 25.25 C-0.67996079 16.43737401 -0.67996079 16.43737401 -1.4375 7.25 C-6.39600383 5.4469077 -9.47493475 7.26584592 -13.4375 10.25 Z M41.5625 12.25 C35.496809 18.01438822 35.496809 18.01438822 32.5625 25.25 C39.1625 25.25 45.7625 25.25 52.5625 25.25 C56.57607117 16.73928689 56.57607117 16.73928689 56.5625 8.25 C55.9025 7.59 55.2425 6.93 54.5625 6.25 C48.86401281 6.25 45.86066118 8.65455406 41.5625 12.25 Z " fill="#D7E9D1" transform="translate(343.4375,123.75)"/>
</svg>
